<svg id="Capa_1" enable-background="new 0 0 511.976 511.976" height="512" viewBox="0 0 511.976 511.976" width="512" xmlns="http://www.w3.org/2000/svg"><g><path d="m297.914 310.711-57.906 38.865-7.849-3.828-2.096-11.505c-2.61-14.418-13.533-25.812-27.828-29.026l-14.131-3.173v-70.573h4.923c9.917 0 19.443-2.188 28.314-6.502 3.725-1.812 5.276-6.3 3.464-10.025s-6.301-5.277-10.025-3.464c-6.81 3.313-14.129 4.992-21.754 4.992l-44.169.002c-4.142 0-7.5 3.358-7.5 7.5s3.358 7.5 7.5 7.5h24.246v54.879l-23.428-11.421-2.087-11.507c-2.611-14.419-13.538-25.813-27.841-29.026l-3.125-.701v-179.848c0-5.205-1.042-10.276-3.009-14.99 8.21-1.821 16.759-2.995 25.537-3.479 13.595-.759 26.749 4.857 35.201 15 8.48 10.176 13.151 23.092 13.151 36.369v13.771c0 4.142 3.358 7.5 7.5 7.5h41.464c3.516 0 6.375 2.86 6.375 6.375v52.26c0 8.122-1.904 15.878-5.658 23.052-1.92 3.67-.502 8.202 3.167 10.123 3.671 1.921 8.203.502 10.123-3.167 4.82-9.211 7.368-19.587 7.368-30.007v-52.26c0-11.787-9.589-21.375-21.375-21.375h-33.964v-6.272c0-16.779-5.905-33.106-16.627-45.973-11.474-13.768-29.251-21.384-47.551-20.374-13.084.723-25.75 2.833-37.656 6.272-23.772 6.984-44.537 19.242-60.379 36.107-17.813 18.963-29.85 43.63-35.777 73.318-9.29 46.542-4.218 94.449 15.077 142.402 2.439 6.026 5.434 12.83 8.055 18.321 20.904 43.574 53.742 87.836 96.919 130.286 21.515 21.113 45.979 42.215 71.608 61.74 2.624 1.999 5.741 3.021 8.888 3.021 2.222 0 4.459-.51 6.546-1.544 5.049-2.503 8.183-7.56 8.179-13.194-.005-8.708 2.402-17.039 6.685-24.223 2.352 7.006 6.804 13.282 12.988 17.78 6.356 4.623 13.83 6.919 21.291 6.918 5.895 0 11.78-1.441 17.099-4.293 1.794 2.073 3.831 3.959 6.097 5.608 6.378 4.64 13.844 6.923 21.281 6.923 9.004 0 17.965-3.348 24.898-9.915l67.199-63.652c.333-.316.637-.662.908-1.033l100.943-138.782c9.568-13.155 14.015-29.321 12.52-45.519l-1.933-20.947c-.38-4.125-4.029-7.157-8.157-6.779-4.125.38-7.16 4.033-6.779 8.157l1.933 20.948c1.16 12.568-2.29 25.11-9.714 35.317l-100.539 138.222-66.698 63.178c-7.411 7.021-18.783 7.758-27.039 1.751-5.114-3.72-8.279-9.473-8.684-15.783-.405-6.311 1.999-12.421 6.596-16.764l58.925-55.674c.336-.318.643-.666.915-1.04l22.654-31.147c.117-.08.242-.142.356-.229l51.204-39.452c11.072-8.243 17.657-20.88 18.066-34.681l3.12-104.958c.123-4.14-3.133-7.596-7.274-7.719-4.12-.137-7.596 3.133-7.719 7.274l-3.12 104.958c-.273 9.206-4.672 17.634-12.068 23.122-.037.027-.073.054-.108.082l-67.265 51.827c-9.435 7.268-22.625 6.673-31.366-1.417-5.022-4.649-7.792-10.978-7.8-17.821s2.748-13.178 7.758-17.838l47.045-43.752c2.506-2.331 3.116-6.064 1.483-9.072-.729-1.343-72.447-134.995-29.995-193.36l7.748-10.652c6.706-9.22 16.602-15.276 27.863-17.053 11.262-1.78 22.541.938 31.76 7.645l20.553 14.953c37.022 26.932 61.797 68.406 67.972 113.787.559 4.104 4.332 6.975 8.443 6.42 4.104-.559 6.979-4.338 6.42-8.443-6.724-49.412-33.7-94.569-74.011-123.895l-20.553-14.953c-12.459-9.063-27.702-12.733-42.922-10.332-15.219 2.401-28.593 10.586-37.657 23.046l-7.746 10.652c-43.377 59.638 12.689 177.677 26.234 204.171l-42.852 39.852c-3.731 3.472-6.706 7.622-8.828 12.166zm-3.525 20.389c.663 6.845 3.115 13.405 7.066 18.987l-7.144 9.823-23.278 21.993v-3.815c0-8.146-4.733-15.707-12.045-19.257l-3.396-1.656zm-275.167-192.063c12.073-60.469 48.942-85.695 79.744-96.143 1.736 3.368 2.658 7.101 2.658 10.957v176.482l-9.538-2.139c-3.449-5.1-9.12-8.405-15.546-8.693-24.776-1.119-43.039 6.455-55.357 14.66-7.505-32.124-8.177-63.983-1.961-95.124zm16.743 139.711c-.779-1.836-1.551-3.687-2.307-5.567-.095-.235-.201-.464-.317-.688-3.054-7.624-5.718-15.242-8.01-22.851 10.067-7.817 26.616-16.244 50.535-15.157 2.154.096 3.972 1.587 4.522 3.708 1.992 7.691 4.404 22.007-1.823 31.477-3.59 5.458-9.672 8.783-18.597 10.167-9.062 1.405-17.12 1.024-24.003-1.089zm168.821 197.807c-24.297-18.538-46.962-38.049-67.466-58.028l-.011-12.214c-.004-9.379 2.747-18.47 7.957-26.29 2.296-3.447 1.364-8.103-2.083-10.4-3.446-2.296-8.103-1.364-10.4 2.083-6.344 9.522-9.912 20.48-10.407 31.849-34.235-35.666-60.646-71.96-78.683-108.14 1.934.167 3.905.26 5.922.26 4.059 0 8.281-.339 12.652-1.017 13.164-2.041 22.864-7.675 28.831-16.747 6.676-10.151 7.287-22.512 5.838-33.259l19.528 4.38c8.408 1.889 14.832 8.586 16.368 17.065l2.766 15.247c.426 2.35 1.946 4.356 4.093 5.403l30.248 14.746c2.192 1.07 3.609 3.337 3.609 5.776v26.67c0 5.756-3.476 10.942-8.854 13.214-3.815 1.611-5.603 6.011-3.991 9.827 1.209 2.863 3.988 4.584 6.913 4.584.973 0 1.962-.19 2.915-.593 10.946-4.623 18.019-15.233 18.019-27.032v-16.424l10.402 2.335c8.401 1.889 14.822 8.586 16.358 17.071l2.777 15.247c.427 2.347 1.946 4.351 4.091 5.397l30.25 14.753c2.192 1.064 3.608 3.328 3.608 5.769v26.67c0 6.093-3.756 11.39-9.645 13.522l-.485.182c-24.424 8.857-40.884 32.146-41.12 58.094zm43.493-17.998c-6.323-4.599-9.578-12.368-8.52-20.073 3.437-2.447 7.235-4.461 11.33-5.946l.481-.181c11.641-4.215 19.461-15.306 19.461-27.598v-2.219l34.085-32.204c.336-.318.642-.666.915-1.04l6.38-8.771c8.385 5.359 18.346 7.252 27.868 5.582l-1.482 2.038-58.42 55.197c-7.849 7.417-11.955 17.851-11.263 28.627.18 2.813.69 5.558 1.488 8.197-7.027 3.695-15.707 3.203-22.323-1.609z"/></g></svg>