<svg id="Capa_1" enable-background="new 0 0 512.56 512.56" height="512" viewBox="0 0 512.56 512.56" width="512" xmlns="http://www.w3.org/2000/svg"><g><path d="m77.216 455.094c-4.11-.566-7.889 2.3-8.456 6.403-.769 5.567-1.159 11.157-1.159 16.614v26.949c0 4.142 3.358 7.5 7.5 7.5s7.5-3.358 7.5-7.5v-26.949c0-4.773.342-9.672 1.018-14.562.567-4.102-2.3-7.888-6.403-8.455z"/><path d="m369.549 365.9-57.462-23.445v-30.841c18.508-14.445 31.774-34.802 37.43-57.729h.317c19.006 0 34.468-15.462 34.468-34.469 0-11.813-5.976-22.255-15.061-28.468l7.993-32.386c.992-4.021-1.463-8.086-5.484-9.079-4.021-.991-8.086 1.463-9.079 5.484l-7.501 30.394c-.856-.134-1.725-.227-2.601-.296v-44.313c0-14.039-5.41-27.287-14.728-37.228l3.815-6.056c3.374-5.355 5.157-11.532 5.157-17.862 0-2.98-.179-5.919-.499-8.815 7.741 1.905 14.667 6.328 19.721 12.782 6.89 8.797 9.306 20.064 6.628 30.913l-2.324 9.418c-.992 4.021 1.463 8.086 5.485 9.079.604.149 1.208.22 1.803.22 3.369 0 6.432-2.287 7.276-5.705l2.324-9.418c3.79-15.355.37-31.303-9.382-43.755-8.653-11.048-21.176-17.903-34.937-19.311-10.387-31.893-40.388-55.014-75.702-55.014h-24.003c-9.535 0-19.02 1.32-28.191 3.924-17.995 5.109-34.047 14.107-47.711 26.747-3.041 2.813-3.226 7.558-.413 10.599 2.812 3.041 7.557 3.226 10.599.413 11.916-11.021 25.919-18.871 41.623-23.329 7.838-2.226 15.944-3.354 24.093-3.354h24.003c35.625 0 64.607 28.983 64.607 64.607 0 3.497-.985 6.908-2.849 9.867l-2.879 4.57c-.56-.335-1.126-.662-1.7-.978l-22.252-12.25c-3.744-2.061-8.471-1.391-11.494 1.632l-15.97 15.97c-.345.345-.803.535-1.291.535h-71.587c-23.049 0-41.8 18.751-41.8 41.8v44.381c-.588.061-1.172.138-1.751.228l-10.771-43.638c-6.384-25.866-2.567-52.823 10.749-75.904 2.07-3.588.839-8.174-2.749-10.244-3.588-2.071-8.174-.84-10.244 2.749-15.26 26.453-19.635 57.348-12.318 86.994l11.262 45.63c-9.085 6.213-15.061 16.655-15.061 28.468 0 18.803 15.135 34.127 33.861 34.453 5.617 23.037 18.922 43.521 37.505 58.037v30.548l-57.463 23.445c-29.038 11.848-52.08 34.163-64.88 62.834-1.688 3.782.009 8.217 3.791 9.906.993.443 2.032.653 3.053.653 2.869 0 5.608-1.655 6.853-4.444 9.272-20.767 24.685-37.711 44.115-48.832l-4.593 118.753c-.16 4.139 3.066 7.625 7.205 7.785.099.003.197.005.295.005 4.008 0 7.333-3.17 7.489-7.21l4.897-126.605 14.111-5.757 11.925 12.91c20.149 21.815 48.737 34.326 78.434 34.326s58.285-12.511 78.434-34.326l12.239-13.251 14.794 6.036 4.899 126.667c.156 4.041 3.481 7.21 7.489 7.21.098 0 .197-.002.295-.005 4.139-.16 7.364-3.646 7.205-7.785l-4.597-118.848c32.888 18.721 53.495 53.559 53.495 92.19v26.949c0 4.142 3.358 7.5 7.5 7.5s7.5-3.358 7.5-7.5v-26.949c-.001-49.476-29.601-93.522-75.41-112.212zm-.246-146.483c0 9.974-7.543 18.209-17.221 19.328.31-3.267.487-6.564.487-9.891v-28.691c9.441 1.337 16.734 9.449 16.734 19.254zm-225.196 0c0-9.509 6.857-17.435 15.884-19.124v28.859c0 3.179.161 6.331.446 9.456-9.244-1.508-16.33-9.527-16.33-19.191zm30.884 9.736v-88.399c0-14.778 12.022-26.8 26.8-26.8h71.587c4.493 0 8.718-1.75 11.897-4.928l13.136-13.136 18.741 10.317c12.594 6.933 20.417 20.17 20.417 34.546v88.101c0 37.989-24.055 72.047-59.86 84.75l-.738.262c-13.703 4.861-28.785 4.831-42.468-.087-35.596-12.794-59.512-46.802-59.512-84.626zm148.13 146.567c-17.574 19.026-41.516 29.504-67.416 29.504s-49.842-10.478-67.416-29.504l-8.113-8.784 29.313-11.96c3.635-1.483 5.983-4.978 5.983-8.903v-24.399c4.454 2.385 9.108 4.477 13.956 6.22 8.518 3.062 17.472 4.592 26.429 4.592 8.849 0 17.701-1.495 26.129-4.485l.737-.262c4.993-1.771 9.785-3.909 14.362-6.357v24.691c0 3.925 2.349 7.42 5.982 8.903l28.479 11.619z"/><path d="m324.465 439.61h-136.311c-6.323 0-11.468 5.145-11.468 11.468v53.982c0 4.142 3.358 7.5 7.5 7.5s7.5-3.358 7.5-7.5v-24.475h129.247v24.475c0 4.142 3.358 7.5 7.5 7.5s7.5-3.358 7.5-7.5v-53.982c0-6.323-5.144-11.468-11.468-11.468zm-132.778 25.975v-10.975h129.247v10.975z"/><path d="m233.132 209.417c0 12.78 10.397 23.178 23.178 23.178s23.178-10.397 23.178-23.178v-5.879c0-4.142-3.358-7.5-7.5-7.5s-7.5 3.358-7.5 7.5v5.879c0 4.509-3.669 8.178-8.178 8.178s-8.178-3.668-8.178-8.178v-5.879c0-4.142-3.358-7.5-7.5-7.5s-7.5 3.358-7.5 7.5z"/><path d="m283.126 243.83h-54.842c-6.286 0-11.4 5.114-11.4 11.4v1.384c0 21.406 17.415 38.821 38.821 38.821s38.821-17.415 38.821-38.821v-1.384c0-6.287-5.114-11.4-11.4-11.4zm-27.421 36.604c-12.388 0-22.597-9.505-23.719-21.604h47.438c-1.122 12.099-11.331 21.604-23.719 21.604z"/><path d="m218.095 180.829c0-4.142-3.358-7.5-7.5-7.5s-7.5 3.358-7.5 7.5v5.619c0 4.142 3.358 7.5 7.5 7.5s7.5-3.358 7.5-7.5z"/><path d="m223.736 162.295c3.886 1.439 8.2-.542 9.639-4.427s-.543-8.2-4.427-9.639c-11.797-4.371-24.826-4.464-36.69-.258l-.628.223c-3.903 1.386-5.944 5.674-4.558 9.578 1.092 3.074 3.982 4.992 7.068 4.992.833 0 1.68-.14 2.51-.434l.625-.222c8.553-3.032 17.953-2.965 26.461.187z"/><path d="m301.815 173.329c-4.142 0-7.5 3.358-7.5 7.5v5.619c0 4.142 3.358 7.5 7.5 7.5s7.5-3.358 7.5-7.5v-5.619c0-4.142-3.358-7.5-7.5-7.5z"/><path d="m288.674 162.295c8.51-3.153 17.908-3.219 26.458-.188l.628.223c.83.294 1.677.434 2.51.434 3.085 0 5.976-1.919 7.068-4.992 1.386-3.903-.655-8.191-4.558-9.578l-.632-.224c-11.858-4.204-24.887-4.112-36.686.259-3.884 1.439-5.866 5.754-4.427 9.639 1.439 3.883 5.755 5.865 9.639 4.427z"/></g></svg>