<svg id="Capa_1" enable-background="new 0 0 512.001 512.001" height="512" viewBox="0 0 512.001 512.001" width="512" xmlns="http://www.w3.org/2000/svg"><g><path d="m279.695 100.46c3.278-1.305 6.728-1.98 10.254-2.009 3.656-.064 7.29.646 10.722 2.01.909.361 1.846.532 2.768.532 2.982 0 5.803-1.791 6.972-4.731 1.53-3.849-.35-8.21-4.199-9.74-5.242-2.084-10.766-3.113-16.386-3.07-5.39.044-10.664 1.078-15.675 3.071-3.849 1.531-5.728 5.893-4.196 9.741s5.891 5.726 9.74 4.196zm-71.132.534c.922 0 1.86-.171 2.77-.533 3.279-1.304 6.729-1.98 10.255-2.009 3.652-.049 7.29.645 10.721 2.01 3.849 1.53 8.209-.351 9.74-4.198 1.53-3.85-.349-8.21-4.198-9.741-5.241-2.084-10.761-3.091-16.386-3.07-5.39.044-10.664 1.077-15.675 3.071-3.849 1.531-5.728 5.892-4.197 9.741 1.168 2.939 3.988 4.729 6.97 4.729zm231.638 46.007h-69.939c1.011-12.325-.509-29.756-6.463-44.247 7.464-8.43 13.636-17.824 18.361-27.987 12.019-25.852 11.897-49.97 9.68-65.651-.692-4.892-4.771-8.652-9.697-8.944-12.157-.72-24.022.83-35.262 4.606-21.877 7.351-36.638 21.56-45.819 33.615-13.679-6.076-28.86-9.63-45.061-9.63s-31.383 3.554-45.061 9.63c-9.181-12.055-23.942-26.264-45.819-33.615-11.239-3.775-23.102-5.325-35.261-4.606-4.927.292-9.006 4.053-9.698 8.944-2.218 15.682-2.339 39.8 9.68 65.651 4.725 10.163 10.896 19.556 18.36 27.986-4.318 10.264-6.837 27.58-6.799 35.311.066 13.53 2.521 26.919 7.188 38.938h-76.79c-23.048 0-41.8 18.751-41.8 41.8v93.2h-15v-93.2c0-31.319 25.48-56.8 56.8-56.8h46.2c4.142 0 7.5-3.357 7.5-7.5s-3.358-7.5-7.5-7.5h-46.2c-39.59 0-71.8 32.209-71.8 71.8v185.7c0 59.275 48.224 107.5 107.5 107.5h297c59.276 0 107.5-48.225 107.5-107.5v-185.7c0-39.592-32.21-71.801-71.8-71.801zm-88.543-128.004c8.236-2.768 16.894-4.086 25.787-3.989 1.207 12.004 1.005 32.161-8.886 53.436-3.245 6.98-7.288 13.536-12.038 19.604-9.761-16.578-24.197-31.73-41.958-42.566 7.881-9.789 19.92-20.715 37.095-26.485zm-95.657 24.765c50.227 0 89.183 39.165 97.828 77.029 1.815 7.95 1.785 14.198 1.771 17.2l-.002.712c0 52.351-44.679 94.941-99.596 94.941s-99.596-42.591-99.596-94.941l-.002-.711c-.014-3.003-.044-9.252 1.771-17.204v.001c8.644-37.863 47.6-77.027 97.826-77.027zm-101.25 289.405c4.519-16.428 10.026-32.706 16.408-48.422 4.159-10.231 8.725-20.33 13.658-30.231l54.366 36.479c-7.697 5.32-12.749 14.178-12.749 24.193 0 16.232 13.264 29.438 29.568 29.438s29.568-13.206 29.568-29.438c0-9.689-4.727-18.297-12.003-23.665l55.546-33.054c4.193 8.633 8.123 17.401 11.73 26.275 6.383 15.718 11.89 31.996 16.409 48.424-2.401 4.94-3.75 10.482-3.75 16.334v45c0 12.406-10.093 22.5-22.5 22.5h-150c-12.407 0-22.5-10.094-22.5-22.5v-45c-.001-5.85-1.351-11.392-3.751-16.333zm86.681-17.98c0-7.962 6.535-14.439 14.568-14.439s14.568 6.478 14.568 14.439-6.535 14.438-14.568 14.438c-8.032 0-14.568-6.477-14.568-14.438zm14.809-30.81-64.457-43.25c1.546-2.85 3.127-5.677 4.731-8.486 17.351 10.151 37.719 16.004 59.486 16.004s42.135-5.854 59.485-16.004c2.336 4.097 4.615 8.236 6.827 12.418zm-112.798-215.934c-9.891-21.274-10.093-41.432-8.886-53.436 8.88-.1 17.551 1.223 25.787 3.989 17.175 5.771 29.214 16.697 37.095 26.484-17.761 10.836-32.198 25.988-41.958 42.566-4.75-6.068-8.794-12.624-12.038-19.603zm-98.442 150.358c0-14.777 12.022-26.8 26.8-26.8h84.001c7.198 12.402 16.822 23.337 28.256 32.209-10.12 17.598-19.127 36.026-26.795 54.889-5.314 13.085-10.045 26.544-14.127 40.157-6.208-4.556-13.861-7.254-22.134-7.254h-76v-93.201zm452 185.7c0 51.005-41.495 92.5-92.5 92.5h-297c-51.005 0-92.5-41.495-92.5-92.5v-77.5h106c12.407 0 22.5 10.094 22.5 22.5v45c0 20.678 16.822 37.5 37.5 37.5h150c20.678 0 37.5-16.822 37.5-37.5v-45c0-12.406 10.093-22.5 22.5-22.5h106zm0-92.5h-15v-93.2c0-23.049-18.751-41.8-41.8-41.8h-55.2c-4.142 0-7.5 3.357-7.5 7.5s3.358 7.5 7.5 7.5h55.2c14.777 0 26.8 12.022 26.8 26.8v93.2h-76c-8.274 0-15.926 2.699-22.134 7.254-4.082-13.613-8.813-27.072-14.128-40.159-4.732-11.64-9.988-23.109-15.684-34.328-.04-.088-.089-.174-.133-.261-3.494-6.87-7.153-13.645-10.974-20.3 19.972-15.498 34.42-37.293 40.047-62.206h72.206c31.319 0 56.8 25.48 56.8 56.8zm-266.443-177.247c-2.567 4.523-2.508 9.891.16 14.356l12.966 21.709c1.22 2.043 2.879 3.695 4.817 4.882v6.037c0 3.6-2.965 6.527-6.609 6.527s-6.609-2.928-6.609-6.527c0-4.143-3.358-7.5-7.5-7.5s-7.5 3.357-7.5 7.5c0 11.87 9.694 21.527 21.609 21.527 5.389 0 10.32-1.98 14.109-5.243 3.789 3.262 8.72 5.243 14.109 5.243 11.916 0 21.609-9.657 21.609-21.527 0-4.143-3.358-7.5-7.5-7.5s-7.5 3.357-7.5 7.5c0 3.6-2.965 6.527-6.609 6.527s-6.609-2.928-6.609-6.527v-6.037c1.938-1.187 3.597-2.838 4.817-4.881l12.966-21.71c2.667-4.466 2.727-9.833.16-14.356-2.54-4.475-7.321-7.255-12.477-7.255h-25.932c-5.156 0-9.938 2.781-12.477 7.255zm37.203 7.745-11.76 19.69-11.76-19.69z"/></g></svg>