<svg id="Capa_1" enable-background="new 0 0 512 512" height="512" viewBox="0 0 512 512" width="512" xmlns="http://www.w3.org/2000/svg"><g><path d="m496.5 463.867h-6.135c3.203-5.018 5.068-10.969 5.068-17.351 0-12.642-7.485-23.925-18.448-29.194 1.241-3.936 1.881-8.059 1.881-12.223 0-22.405-18.228-40.633-40.633-40.633h-9.067v-151.372c18.833-3.53 33.133-20.085 33.133-39.927v-41.417c0-8.703-7.081-15.783-15.783-15.783h-67.05v-76.467c0-21.78-17.72-39.5-39.5-39.5h-167.933c-21.78 0-39.5 17.72-39.5 39.5v76.467h-17.066c-4.142 0-7.5 3.357-7.5 7.5s3.358 7.5 7.5 7.5h17.587c1.103 6.775 3.937 12.973 8.03 18.133h-76.384v-17.35c0-.432.352-.783.783-.783h19.984c4.142 0 7.5-3.357 7.5-7.5s-3.358-7.5-7.5-7.5h-19.984c-8.703 0-15.783 7.08-15.783 15.783v41.417c0 19.842 14.3 36.397 33.133 39.927v151.372h-9.067c-22.405 0-40.633 18.228-40.633 40.633 0 4.164.64 8.287 1.881 12.223-10.962 5.27-18.448 16.553-18.448 29.194 0 6.382 1.865 12.332 5.068 17.351h-6.134c-8.547 0-15.5 6.953-15.5 15.5v17.133c0 8.547 6.953 15.5 15.5 15.5h323.333c4.142 0 7.5-3.357 7.5-7.5s-3.358-7.5-7.5-7.5h-323.333c-.276 0-.5-.225-.5-.5v-17.133c0-.275.224-.5.5-.5h481c.276 0 .5.225.5.5v17.133c0 .275-.224.5-.5.5h-127.667c-4.142 0-7.5 3.357-7.5 7.5s3.358 7.5 7.5 7.5h127.667c8.547 0 15.5-6.953 15.5-15.5v-17.133c0-8.547-6.953-15.5-15.5-15.5zm-32.633-58.767c0 4.586-1.23 9.089-3.556 13.022-1.271 2.149-1.39 4.79-.316 7.044s3.199 3.826 5.669 4.193c8.42 1.25 14.77 8.627 14.77 17.157 0 9.567-7.783 17.351-17.35 17.351h-33.917v-84.4h9.067c14.134 0 25.633 11.499 25.633 25.633zm-215.867-173.166h-116.533c-8.547 0-15.5 6.953-15.5 15.5v117.033h-18.133v-151.373c10.536-1.975 19.646-8.025 25.633-16.451 7.37 10.37 19.47 17.156 33.133 17.156s25.763-6.786 33.133-17.156c7.37 10.37 19.47 17.156 33.133 17.156s25.763-6.786 33.133-17.156c7.37 10.37 19.47 17.156 33.133 17.156s25.763-6.786 33.133-17.156c7.37 10.37 19.47 17.156 33.133 17.156s25.763-6.786 33.133-17.156c5.987 8.425 15.098 14.476 25.633 16.451v151.372h-150.664v-117.032c0-8.547-6.953-15.5-15.5-15.5zm-117.033-67.834h51.267v9.067c0 14.134-11.499 25.633-25.633 25.633s-25.633-11.499-25.633-25.633v-9.067zm117.533 0v9.067c0 14.134-11.499 25.633-25.633 25.633s-25.633-11.499-25.633-25.633v-9.067zm66.267 0v9.067c0 14.134-11.499 25.633-25.633 25.633s-25.634-11.499-25.634-25.633v-9.067zm66.266 0v9.067c0 14.134-11.499 25.633-25.633 25.633s-25.633-11.499-25.633-25.633v-9.067zm66.267 9.067c0 14.134-11.499 25.633-25.633 25.633s-25.633-11.499-25.633-25.633v-9.067h51.266zm0-41.417v17.35h-76.384c4.093-5.16 6.927-11.357 8.03-18.133h67.57c.432 0 .784.351.784.783zm-299.767-7.15v-85.1c0-13.51 10.991-24.5 24.5-24.5h167.934c13.509 0 24.5 10.99 24.5 24.5v85.1c0 13.51-10.991 24.5-24.5 24.5h-167.934c-13.509 0-24.5-10.991-24.5-24.5zm-82.833 48.567v-9.067h51.267v9.067c0 14.134-11.499 25.633-25.633 25.633s-25.634-11.499-25.634-25.633zm-33.133 273.35c0-8.53 6.35-15.907 14.769-17.157 2.47-.367 4.595-1.94 5.669-4.193 1.074-2.254.955-4.894-.316-7.044-2.326-3.934-3.556-8.437-3.556-13.022 0-14.134 11.499-25.633 25.633-25.633h9.067v84.4h-33.916c-9.567-.001-17.35-7.784-17.35-17.351zm66.267-67.05h18.133v84.4h-18.133zm33.133 84.4v-216.433c0-.275.224-.5.5-.5h116.533c.276 0 .5.225.5.5v216.434h-117.533zm198.8 0v-34.2c0-.275.224-.5.5-.5h50.267c.276 0 .5.225.5.5v34.2zm66.266 0v-34.2c0-8.547-6.953-15.5-15.5-15.5h-50.267c-8.547 0-15.5 6.953-15.5 15.5v34.2h-51.266v-84.4h150.667v84.4z"/><path d="m230.367 314.267v-17.134c0-8.547-6.953-15.5-15.5-15.5h-50.267c-8.547 0-15.5 6.953-15.5 15.5v17.134c0 8.547 6.953 15.5 15.5 15.5h50.267c8.547 0 15.5-6.953 15.5-15.5zm-15 0c0 .275-.224.5-.5.5h-50.267c-.276 0-.5-.225-.5-.5v-17.134c0-.275.224-.5.5-.5h50.267c.276 0 .5.225.5.5z"/><path d="m231.15 364.467h-8.283c-4.142 0-7.5 3.357-7.5 7.5s3.358 7.5 7.5 7.5h8.283c4.142 0 7.5-3.357 7.5-7.5s-3.358-7.5-7.5-7.5z"/><path d="m297.133 346.333h83.4c8.547 0 15.5-6.953 15.5-15.5v-83.399c0-8.547-6.953-15.5-15.5-15.5h-83.4c-8.547 0-15.5 6.953-15.5 15.5v83.399c0 8.547 6.953 15.5 15.5 15.5zm-.5-98.899c0-.275.224-.5.5-.5h83.4c.276 0 .5.225.5.5v83.399c0 .275-.224.5-.5.5h-83.4c-.276 0-.5-.225-.5-.5z"/><path d="m355.4 434.875c-4.142 0-7.5 3.357-7.5 7.5v8.283c0 4.143 3.358 7.5 7.5 7.5s7.5-3.357 7.5-7.5v-8.283c0-4.143-3.358-7.5-7.5-7.5z"/><path d="m229.374 106.596c.069-.273.381-.479.726-.479h51.802c.345 0 .657.206.726.479 3.653 14.392 16.821 24.365 31.459 24.364 1.171 0 2.355-.064 3.541-.194 14.68-1.617 26.647-13.423 28.454-28.071.895-7.249-.662-14.504-4.318-20.645 3.657-6.14 5.212-13.395 4.318-20.643 0 0 0 0 0-.001-1.808-14.648-13.774-26.454-28.454-28.071-16.002-1.763-31.055 8.627-35.001 24.17-.069.273-.381.479-.726.479h-51.802c-.344 0-.656-.206-.726-.479-3.946-15.544-19.003-25.934-35.001-24.17-14.68 1.617-26.647 13.423-28.454 28.072-.895 7.249.661 14.504 4.318 20.643-3.656 6.141-5.212 13.396-4.318 20.646 1.808 14.647 13.774 26.453 28.454 28.07 16.008 1.77 31.057-8.627 35.002-24.17zm-48.568-5.738c-.631-5.114.89-10.017 4.282-13.807 2.55-2.848 2.549-7.157-.001-10.005-3.392-3.788-4.912-8.69-4.282-13.804.966-7.827 7.363-14.135 15.21-14.999 8.759-.963 16.669 4.483 18.819 12.951 1.762 6.94 8.039 11.788 15.265 11.788h51.802c7.225 0 13.502-4.848 15.265-11.788 2.149-8.469 10.062-13.918 18.819-12.951 7.848.864 14.245 7.172 15.21 14.998.63 5.114-.89 10.017-4.282 13.805-2.55 2.848-2.55 7.157 0 10.005 3.392 3.79 4.913 8.692 4.282 13.806-.966 7.826-7.363 14.134-15.21 14.998-8.754.97-16.669-4.481-18.819-12.951-1.762-6.94-8.039-11.787-15.265-11.787h-51.802c-7.226 0-13.502 4.847-15.265 11.787-2.15 8.47-10.061 13.918-18.819 12.951-7.847-.864-14.244-7.171-15.209-14.997z"/></g></svg>