<svg id="Capa_1" enable-background="new 0 0 512.313 512.313" height="512" viewBox="0 0 512.313 512.313" width="512" xmlns="http://www.w3.org/2000/svg"><g><path d="m138.71 204.319c4.142 0 7.5-3.357 7.5-7.5v-29.105c0-.493.155-.964.446-1.359l32.046-43.581c1.376-1.872 3.584-2.989 5.907-2.989h37.207c2.323 0 4.532 1.117 5.908 2.99l32.045 43.58c.291.396.445.866.445 1.359v57.744c0 4.143 3.357 7.5 7.5 7.5s7.5-3.357 7.5-7.5v-57.744c0-3.713-1.162-7.256-3.361-10.246l-32.044-43.579c-4.191-5.701-10.918-9.104-17.994-9.104h-11.103v-97.285c0-4.143-3.358-7.5-7.5-7.5s-7.5 3.357-7.5 7.5v97.284h-11.104c-7.076 0-13.802 3.403-17.993 9.104l-32.047 43.583c-2.198 2.99-3.359 6.533-3.359 10.243v29.105c.001 4.143 3.359 7.5 7.501 7.5z"/><path d="m401.246 427.354c4.143 0 7.5-3.357 7.5-7.5v-61.485c0-18.93-9.266-36.701-24.786-47.539l-2.396-1.673c3.777-4.063 6.094-9.501 6.094-15.473v-23.074c0-12.543-10.205-22.748-22.748-22.748h-46.981c-4.143 0-7.5 3.357-7.5 7.5s3.357 7.5 7.5 7.5h46.981c4.272 0 7.748 3.476 7.748 7.748v23.074c0 4.272-3.476 7.748-7.748 7.748h-94.363c-4.272 0-7.748-3.476-7.748-7.748v-23.074c0-4.272 3.476-7.748 7.748-7.748h15.42c4.143 0 7.5-3.357 7.5-7.5s-3.357-7.5-7.5-7.5h-15.42c-12.543 0-22.748 10.205-22.748 22.748v23.074c0 6.055 2.383 11.561 6.254 15.641l-2.156 1.506c-15.52 10.838-24.786 28.609-24.786 47.539v114.443c0 21.781 17.72 39.501 39.5 39.501h102.635c21.781 0 39.501-17.72 39.501-39.501v-20.996c0-4.143-3.357-7.5-7.5-7.5s-7.5 3.357-7.5 7.5v20.996c0 13.51-10.991 24.501-24.501 24.501h-102.636c-13.51 0-24.5-10.991-24.5-24.501v-114.445c0-14.033 6.869-27.207 18.374-35.24l9.608-6.709c.152.003 95.38 0 95.659-.01l9.622 6.719c11.505 8.033 18.374 21.208 18.374 35.24v61.485c-.001 4.143 3.356 7.501 7.499 7.501z"/><path d="m275.911 378.358c-7.88 0-14.29 6.41-14.29 14.29v54.41c0 7.88 6.41 14.29 14.29 14.29h83.633c7.88 0 14.29-6.41 14.29-14.29v-54.41c0-7.88-6.41-14.29-14.29-14.29zm82.923 67.991h-82.213v-52.99h82.213z"/><path d="m223.353 276.624c4.142 0 7.5-3.357 7.5-7.5s-3.358-7.5-7.5-7.5h-77.143v-32.842c0-4.143-3.358-7.5-7.5-7.5s-7.5 3.357-7.5 7.5v160.705h-7.514c-11.1 0-20.129 9.03-20.129 20.13v12.503c0 11.1 9.03 20.13 20.129 20.13h55.82v23.198h-34.781c-9.832 0-17.831 7.999-17.831 17.831v11.202c0 9.832 7.999 17.831 17.831 17.831h68.792c4.142 0 7.5-3.357 7.5-7.5s-3.358-7.5-7.5-7.5h-68.792c-1.561 0-2.831-1.27-2.831-2.831v-11.202c0-1.562 1.27-2.831 2.831-2.831h59.878c4.142 0 7.5-3.357 7.5-7.5s-3.358-7.5-7.5-7.5h-10.097v-23.198h10.094c4.142 0 7.5-3.357 7.5-7.5s-3.358-7.5-7.5-7.5h-80.914c-2.828 0-5.129-2.301-5.129-5.13v-12.503c0-2.829 2.301-5.13 5.129-5.13h80.914c4.142 0 7.5-3.357 7.5-7.5s-3.358-7.5-7.5-7.5h-58.4v-30.051h58.399c4.142 0 7.5-3.357 7.5-7.5s-3.358-7.5-7.5-7.5h-58.399v-67.813h77.143z"/></g></svg>